<svg width="16" height="16" viewBox="0 0 16 16" fill="none" xmlns="http://www.w3.org/2000/svg">
<g id="message-square-02">
<path id="Solid" fill-rule="evenodd" clip-rule="evenodd" d="M5.17251 1.33325H10.8276C11.3642 1.33324 11.8071 1.33324 12.1679 1.36271C12.5427 1.39333 12.8871 1.45904 13.2107 1.6239C13.7125 1.87956 14.1204 2.28751 14.3761 2.78928C14.5409 3.11283 14.6066 3.4573 14.6372 3.83204C14.6667 4.19283 14.6667 4.63573 14.6667 5.17237V8.82747C14.6667 9.36411 14.6667 9.80701 14.6372 10.1678C14.6066 10.5425 14.5409 10.887 14.3761 11.2106C14.1204 11.7123 13.7125 12.1203 13.2107 12.3759C12.8871 12.5408 12.5427 12.6065 12.1679 12.6371C11.8071 12.6666 11.3642 12.6666 10.8276 12.6666H9.12254C8.6798 12.6666 8.55087 12.6697 8.43355 12.6938C8.31587 12.718 8.20199 12.7579 8.095 12.8126C7.98835 12.8671 7.88571 12.9451 7.53998 13.2217L5.93123 14.5087C5.80878 14.6067 5.68396 14.7066 5.57422 14.7792C5.46927 14.8486 5.26578 14.9728 5.00112 14.973C4.69658 14.9734 4.40849 14.8349 4.2185 14.5969C4.0534 14.3901 4.02326 14.1536 4.01188 14.0283C3.99998 13.8973 4.00001 13.7374 4.00004 13.5806L4.00004 12.6611C3.73884 12.6525 3.51484 12.6306 3.30986 12.5757C2.38961 12.3291 1.67082 11.6103 1.42424 10.6901C1.33284 10.349 1.33306 9.95523 1.33334 9.42497C1.33336 9.39485 1.33338 9.36428 1.33338 9.33325L1.33338 5.17239C1.33337 4.63574 1.33336 4.19283 1.36284 3.83204C1.39346 3.4573 1.45917 3.11283 1.62403 2.78928C1.87969 2.28751 2.28764 1.87956 2.7894 1.6239C3.11296 1.45904 3.45743 1.39333 3.83216 1.36271C4.19296 1.33324 4.63586 1.33324 5.17251 1.33325Z" fill="white"/>
</g>
</svg>
